<?xml version="1.0" encoding="utf-8"?>
<!-- Generator: Adobe Illustrator 16.0.0, SVG Export Plug-In . SVG Version: 6.00 Build 0)  -->
<!DOCTYPE svg PUBLIC "-//W3C//DTD SVG 1.1//EN" "http://www.w3.org/Graphics/SVG/1.1/DTD/svg11.dtd">
<svg version="1.1" id="Layer_1" xmlns="http://www.w3.org/2000/svg" xmlns:xlink="http://www.w3.org/1999/xlink" x="0px" y="0px"
	 width="954.447px" height="306.322px" viewBox="0 0 954.447 306.322" enable-background="new 0 0 954.447 306.322"
	 xml:space="preserve">
<path id="Blue_1_" fill="#3B5998" d="M275.233,306.322c8.878,0,16.077-7.556,16.077-16.875V17.448
	c0-9.321-7.199-16.875-16.077-16.875H16.078C7.196,0.573,0,8.126,0,17.448v271.999c0,9.319,7.196,16.875,16.078,16.875H275.233z"/>
<path id="f" fill="#FFFFFF" d="M200.999,306.322V187.919h37.867l5.669-46.144h-43.536v-29.46c0-13.36,3.535-22.464,21.789-22.464
	l23.28-0.011V48.57c-4.027-0.562-17.847-1.818-33.923-1.818c-33.566,0-56.546,21.503-56.546,60.995v34.029h-37.963v46.144h37.963
	v118.402H200.999z"/>
<path id="Blue_2_" fill="#3B5998" d="M932.072,305.749c20.007,0,22.375-7.555,22.375-16.875V16.875
	C954.447,7.554,952.079,0,932.072,0H320.293c-20.016,0-22.317,7.554-22.317,16.875v271.999c0,9.32,2.301,16.875,22.317,16.875
	H932.072z"/>
<g>
	<path fill="#FFFFFF" d="M315.159,157.092c3.222,1.732,8.174,3.465,13.282,3.465c5.502,0,8.41-2.393,8.41-6.022
		c0-3.465-2.515-5.444-8.881-7.836c-8.803-3.217-14.54-8.332-14.54-16.416c0-9.486,7.545-16.745,20.042-16.745
		c5.973,0,10.374,1.32,13.518,2.805l-2.672,10.146c-2.122-1.072-5.894-2.639-11.082-2.639c-5.187,0-7.702,2.475-7.702,5.361
		c0,3.547,2.987,5.114,9.824,7.836c9.353,3.629,13.754,8.744,13.754,16.581c0,9.322-6.837,17.24-21.377,17.24
		c-6.052,0-12.024-1.65-15.011-3.382L315.159,157.092z"/>
	<path fill="#FFFFFF" d="M356.496,111.476h11.946v23.014h0.157c1.257-1.732,2.829-3.052,4.715-4.124
		c1.729-0.99,4.008-1.567,6.209-1.567c7.624,0,13.439,5.526,13.439,17.652v23.592h-11.946v-22.19c0-5.279-1.729-8.909-6.209-8.909
		c-3.144,0-5.109,2.145-5.973,4.372c-0.314,0.825-0.393,1.897-0.393,2.805v23.922h-11.946V111.476z"/>
	<path fill="#FFFFFF" d="M424.396,170.043L423.688,166h-0.236c-2.515,3.217-6.444,4.949-11.003,4.949
		c-7.781,0-12.418-5.938-12.418-12.373c0-10.476,8.959-15.507,22.556-15.425v-0.577c0-2.145-1.1-5.197-6.995-5.197
		c-3.93,0-8.095,1.402-10.61,3.052l-2.2-8.084c2.672-1.567,7.938-3.547,14.933-3.547c12.811,0,16.898,7.919,16.898,17.405v14.023
		c0,3.877,0.157,7.589,0.55,9.816H424.396z M422.981,150.988c-6.287-0.083-11.16,1.484-11.16,6.352c0,3.217,2.043,4.783,4.716,4.783
		c2.986,0,5.422-2.062,6.208-4.619c0.157-0.66,0.236-1.402,0.236-2.144V150.988z"/>
	<path fill="#FFFFFF" d="M444.042,142.987c0-5.939-0.157-9.816-0.314-13.281h10.295l0.393,7.424h0.314
		c1.965-5.856,6.681-8.331,10.375-8.331c1.101,0,1.65,0,2.515,0.165v11.796c-0.864-0.165-1.886-0.33-3.222-0.33
		c-4.401,0-7.388,2.475-8.174,6.352c-0.157,0.825-0.235,1.814-0.235,2.805v20.458h-11.946V142.987z"/>
	<path fill="#FFFFFF" d="M482.47,153.875c0.393,5.198,5.266,7.672,10.846,7.672c4.087,0,7.388-0.578,10.61-1.65l1.572,8.496
		c-3.93,1.65-8.725,2.475-13.911,2.475c-13.047,0-20.514-7.918-20.514-20.54c0-10.229,6.052-21.529,19.413-21.529
		c12.418,0,17.134,10.146,17.134,20.127c0,2.145-0.235,4.042-0.394,4.949H482.47z M496.539,145.296c0-3.052-1.258-8.167-6.759-8.167
		c-5.03,0-7.073,4.784-7.388,8.167H496.539z"/>
	<path fill="#FFFFFF" d="M539.604,129.706l5.737,19.797c0.629,2.392,1.414,5.362,1.886,7.506h0.236
		c0.55-2.145,1.179-5.197,1.729-7.506l4.716-19.797h12.811l-8.96,26.562c-5.501,16.002-9.195,22.436-13.518,26.479
		c-4.165,3.795-8.566,5.115-11.554,5.526l-2.515-10.642c1.493-0.246,3.38-0.988,5.188-2.145c1.808-0.99,3.772-2.969,4.951-5.031
		c0.394-0.578,0.629-1.238,0.629-1.814c0-0.412-0.079-1.072-0.55-2.062l-14.069-36.873H539.604z"/>
	<path fill="#FFFFFF" d="M608.527,149.421c0,14.765-9.982,21.529-20.278,21.529c-11.238,0-19.884-7.754-19.884-20.787
		c0-13.033,8.174-21.364,20.513-21.364C600.667,128.799,608.527,137.295,608.527,149.421z M580.705,149.833
		c0,6.93,2.75,12.126,7.858,12.126c4.637,0,7.624-4.867,7.624-12.126c0-6.021-2.2-12.125-7.624-12.125
		C582.826,137.708,580.705,143.894,580.705,149.833z"/>
	<path fill="#FFFFFF" d="M652.141,157.092c0,5.279,0.158,9.568,0.314,12.951h-10.374l-0.551-5.691h-0.235
		c-1.493,2.475-5.108,6.598-12.024,6.598c-7.781,0-13.519-5.113-13.519-17.569v-23.674h12.025V151.4
		c0,5.857,1.808,9.405,5.973,9.405c3.301,0,5.188-2.393,5.973-4.373c0.314-0.743,0.394-1.732,0.394-2.723v-24.004h12.024V157.092z"
		/>
	<path fill="#FFFFFF" d="M661.726,142.987c0-5.939-0.158-9.816-0.314-13.281h10.295l0.394,7.424h0.314
		c1.965-5.856,6.681-8.331,10.375-8.331c1.1,0,1.649,0,2.515,0.165v11.796c-0.865-0.165-1.887-0.33-3.223-0.33
		c-4.401,0-7.388,2.475-8.174,6.352c-0.157,0.825-0.236,1.814-0.236,2.805v20.458h-11.945V142.987z"/>
	<path fill="#FFFFFF" d="M707.462,142.987c0-5.939-0.157-9.816-0.314-13.281h10.296l0.394,7.424h0.314
		c1.964-5.856,6.68-8.331,10.374-8.331c1.101,0,1.65,0,2.515,0.165v11.796c-0.864-0.165-1.887-0.33-3.222-0.33
		c-4.401,0-7.389,2.475-8.174,6.352c-0.157,0.825-0.236,1.814-0.236,2.805v20.458h-11.946V142.987z"/>
	<path fill="#FFFFFF" d="M745.892,153.875c0.392,5.198,5.266,7.672,10.846,7.672c4.086,0,7.388-0.578,10.609-1.65l1.572,8.496
		c-3.93,1.65-8.725,2.475-13.911,2.475c-13.046,0-20.513-7.918-20.513-20.54c0-10.229,6.052-21.529,19.413-21.529
		c12.418,0,17.133,10.146,17.133,20.127c0,2.145-0.235,4.042-0.393,4.949H745.892z M759.959,145.296
		c0-3.052-1.258-8.167-6.759-8.167c-5.03,0-7.073,4.784-7.388,8.167H759.959z"/>
	<path fill="#FFFFFF" d="M778.111,159.073c2.201,1.402,6.759,3.051,10.296,3.051c3.615,0,5.108-1.318,5.108-3.381
		c0-2.063-1.179-3.053-5.658-4.62c-7.938-2.805-11.004-7.342-10.925-12.126c0-7.507,6.13-13.198,15.64-13.198
		c4.48,0,8.489,1.072,10.847,2.31l-2.122,8.661c-1.729-0.99-5.03-2.31-8.331-2.31c-2.907,0-4.559,1.237-4.559,3.3
		c0,1.897,1.493,2.887,6.209,4.619c7.31,2.64,10.374,6.517,10.453,12.456c0,7.506-5.659,13.033-16.662,13.033
		c-5.03,0-9.51-1.154-12.418-2.805L778.111,159.073z"/>
	<path fill="#FFFFFF" d="M848.527,157.092c0,5.279,0.157,9.568,0.314,12.951h-10.375l-0.55-5.691h-0.235
		c-1.493,2.475-5.108,6.598-12.024,6.598c-7.781,0-13.519-5.113-13.519-17.569v-23.674h12.025V151.4
		c0,5.857,1.808,9.405,5.973,9.405c3.301,0,5.188-2.393,5.973-4.373c0.314-0.743,0.394-1.732,0.394-2.723v-24.004h12.024V157.092z"
		/>
	<path fill="#FFFFFF" d="M858.112,111.476h11.945v58.567h-11.945V111.476z"/>
	<path fill="#FFFFFF" d="M893.083,118.158v11.548h8.566v9.239h-8.566v14.6c0,4.868,1.101,7.094,4.716,7.094
		c1.493,0,2.672-0.164,3.536-0.33l0.078,9.486c-1.571,0.66-4.401,1.072-7.78,1.072c-3.851,0-7.073-1.402-8.96-3.465
		c-2.201-2.392-3.301-6.269-3.301-11.96v-16.498h-5.108v-9.239h5.108v-8.744L893.083,118.158z"/>
	<path fill="#FFFFFF" d="M908.484,159.073c2.201,1.402,6.759,3.051,10.296,3.051c3.615,0,5.108-1.318,5.108-3.381
		c0-2.063-1.179-3.053-5.658-4.62c-7.938-2.805-11.004-7.342-10.925-12.126c0-7.507,6.13-13.198,15.64-13.198
		c4.48,0,8.489,1.072,10.847,2.31l-2.122,8.661c-1.729-0.99-5.03-2.31-8.331-2.31c-2.908,0-4.559,1.237-4.559,3.3
		c0,1.897,1.493,2.887,6.209,4.619c7.31,2.64,10.374,6.517,10.453,12.456c0,7.506-5.659,13.033-16.662,13.033
		c-5.03,0-9.511-1.154-12.418-2.805L908.484,159.073z"/>
</g>
</svg>
